<svg width="18.000000" height="18.000000" viewBox="0 0 18 18" fill="none" xmlns="http://www.w3.org/2000/svg" xmlns:xlink="http://www.w3.org/1999/xlink">
	<desc>
			Created with Pixso.
	</desc>
	<defs/>
	<rect id="Iconly/Curved/Activity" width="18.000000" height="18.000000" fill="#FFFFFF" fill-opacity="0"/>
	<path id="Stroke 1" d="M5.18 11.14L7.43 8.22L9.99 10.23L12.18 7.39" stroke="#727272" stroke-opacity="1.000000" stroke-width="1.500000" stroke-linejoin="round" stroke-linecap="round"/>
	<path id="Stroke 2" d="M16.19 3.2C16.19 3.99 15.54 4.64 14.75 4.64C13.95 4.64 13.3 3.99 13.3 3.2C13.3 2.4 13.95 1.76 14.75 1.76C15.54 1.76 16.19 2.4 16.19 3.2Z" stroke="#727272" stroke-opacity="1.000000" stroke-width="1.500000" stroke-linejoin="round"/>
	<path id="Stroke 4" d="M15.56 6.95C15.66 7.62 15.71 8.37 15.71 9.22C15.71 14.43 13.97 16.16 8.77 16.16C3.57 16.16 1.83 14.43 1.83 9.22C1.83 4.02 3.57 2.28 8.77 2.28C9.6 2.28 10.35 2.33 11.01 2.42" stroke="#727272" stroke-opacity="1.000000" stroke-width="1.500000" stroke-linejoin="round" stroke-linecap="round"/>
</svg>
