<svg width="24.000000" height="24.000000" viewBox="0 0 24 24" fill="none" xmlns="http://www.w3.org/2000/svg" xmlns:xlink="http://www.w3.org/1999/xlink">
	<desc>
			Created with Pixso.
	</desc>
	<defs/>
	<rect id="Iconly/Curved/Image 2" width="24.000000" height="24.000000" fill="#FFFFFF" fill-opacity="0"/>
	<path id="Stroke 1" d="M12 21.25C18.93 21.25 21.25 18.93 21.25 12C21.25 5.06 18.93 2.75 12 2.75C5.06 2.75 2.75 5.06 2.75 12C2.75 18.93 5.06 21.25 12 21.25Z" stroke="#46A358" stroke-opacity="1.000000" stroke-width="1.500000" stroke-linejoin="round"/>
	<path id="Stroke 3" d="M8.83 10.54C7.86 10.54 7.07 9.75 7.07 8.78C7.07 7.81 7.86 7.02 8.83 7.02C9.81 7.02 10.59 7.81 10.59 8.78C10.59 9.75 9.81 10.54 8.83 10.54Z" stroke="#46A358" stroke-opacity="1.000000" stroke-width="1.500000" stroke-linejoin="round"/>
	<path id="Stroke 5" d="M21.12 14.66C20.23 13.76 18.99 11.92 16.7 11.92C14.41 11.92 14.36 15.96 12.02 15.96C9.69 15.96 8.75 14.59 7.22 15.31C5.7 16.02 4.46 18.87 4.46 18.87" stroke="#46A358" stroke-opacity="1.000000" stroke-width="1.500000" stroke-linejoin="round" stroke-linecap="round"/>
</svg>
